adjusted_angles_states
version=1
nRows=14
nColumns=49
inDegrees=yes

# SIMM Motion File Header:
name adjusted_angles_states
datacolumns 49
datarows 14
otherdata 1
range 0.21308961 0.21838631
endheader
time	/jointset/bb/crank_angle/value	/jointset/bb/crank_angle/speed	/jointset/spindle/pedal_angle_r/value	/jointset/spindle/pedal_angle_r/speed	/jointset/ground_pelvis/pelvis_tilt/value	/jointset/ground_pelvis/pelvis_tilt/speed	/jointset/ground_pelvis/pelvis_list/value	/jointset/ground_pelvis/pelvis_list/speed	/jointset/ground_pelvis/pelvis_rotation/value	/jointset/ground_pelvis/pelvis_rotation/speed	/jointset/ground_pelvis/pelvis_tx/value	/jointset/ground_pelvis/pelvis_tx/speed	/jointset/ground_pelvis/pelvis_ty/value	/jointset/ground_pelvis/pelvis_ty/speed	/jointset/ground_pelvis/pelvis_tz/value	/jointset/ground_pelvis/pelvis_tz/speed	/jointset/hip_r/hip_angle_r/value	/jointset/hip_r/hip_angle_r/speed	/jointset/hip_r/hip_adduction_r/value	/jointset/hip_r/hip_adduction_r/speed	/jointset/hip_r/hip_rotation_r/value	/jointset/hip_r/hip_rotation_r/speed	/jointset/knee_r/knee_angle_r/value	/jointset/knee_r/knee_angle_r/speed	/jointset/knee_r/tib_tx_r/value	/jointset/knee_r/tib_tx_r/speed	/jointset/knee_r/tib_ty_r/value	/jointset/knee_r/tib_ty_r/speed	/jointset/tib_pat_r/pat_angle_r/value	/jointset/tib_pat_r/pat_angle_r/speed	/jointset/tib_pat_r/pat_tx_r/value	/jointset/tib_pat_r/pat_tx_r/speed	/jointset/tib_pat_r/pat_ty_r/value	/jointset/tib_pat_r/pat_ty_r/speed	/jointset/ankle_r/ankle_angle_r/value	/jointset/ankle_r/ankle_angle_r/speed	/jointset/subtalar_r/subtalar_angle_r/value	/jointset/subtalar_r/subtalar_angle_r/speed	/jointset/mtp_r/mtp_angle_r/value	/jointset/mtp_r/mtp_angle_r/speed	/forceset/bifemlh_r/activation	/forceset/bifemlh_r/fiber_length	/forceset/bifemsh_r/activation	/forceset/bifemsh_r/fiber_length	/forceset/glut_max2_r/activation	/forceset/glut_max2_r/fiber_length	/forceset/vas_int_r/activation	/forceset/vas_int_r/fiber_length
      0.21308961	   -179.96565675	  -1693.34138370	    193.56741981	    858.08383745	      0.00000000	      0.00000000	     -0.00000000	     -0.00000000	      0.00000000	     -0.00000000	     -0.14965250	      0.00000000	     -0.06584239	      0.00000000	      0.00000000	      0.00000000	     39.62119453	    183.50777219	      4.36934420	      2.26265907	      1.71754040	    -82.60040859	    -48.86050887	   -877.53648309	      0.00371160	      0.10972196	     -0.47273782	     -0.23830314	     17.02495697	     42.43563399	      0.04598805	     -0.23968130	     -0.02334425	      0.03449062	     23.24801447	   -140.81880951	     -0.00000000	     -0.00000000	     -0.00000000	     -0.00000000	      0.02391190	      0.12474728	      0.02165025	      0.17287187	      0.02165025	      0.12971879	      0.17011118	      0.11852368
      0.21355710	   -180.75511799	  -1684.21822831	    193.96712709	    852.05519429	      0.00000000	      0.00000000	     -0.00000000	     -0.00000000	      0.00000000	     -0.00000000	     -0.14965250	      0.00000000	     -0.06584239	      0.00000000	      0.00000000	      0.00000000	     39.70814997	    188.45860318	      4.37038720	      2.19909297	      1.67895854	    -82.45599543	    -49.27188271	   -882.33907770	      0.00376272	      0.10895216	     -0.47284983	     -0.24088415	     17.04459300	     41.56763403	      0.04587551	     -0.24178474	     -0.02332811	      0.03454171	     23.18288306	   -137.81920216	     -0.00000000	     -0.00000000	     -0.00000000	     -0.00000000	      0.02388906	      0.12458666	      0.02164001	      0.17263275	      0.02164001	      0.12977720	      0.16879390	      0.11882806
      0.21391793	   -181.36155969	  -1677.13148465	    194.27377378	    847.64504541	      0.00000000	      0.00000000	     -0.00000000	     -0.00000000	      0.00000000	     -0.00000000	     -0.14965250	      0.00000000	     -0.06584239	      0.00000000	      0.00000000	      0.00000000	     39.77680600	    192.05288206	      4.37117152	      2.14788254	      1.64923159	    -82.30810185	    -49.59085638	   -885.58864991	      0.00380191	      0.10825965	     -0.47293709	     -0.24275638	     17.05946744	     40.87460386	      0.04578799	     -0.24328952	     -0.02331564	      0.03456455	     23.13358027	   -135.44639052	     -0.00000000	      0.00000000	     -0.00000000	     -0.00000000	      0.02387143	      0.12446269	      0.02163215	      0.17244734	      0.02163215	      0.12982451	      0.16778737	      0.11912632
      0.21427876	   -181.96545847	  -1670.14793486	    194.57887524	    843.50009554	      0.00000000	      0.00000000	     -0.00000000	     -0.00000000	      0.00000000	     -0.00000000	     -0.14965250	      0.00000000	     -0.06584239	      0.00000000	      0.00000000	      0.00000000	     39.84672753	    195.47762775	      4.37193707	      2.09515929	      1.61956225	    -82.13829840	    -49.91094537	   -888.53744447	      0.00384083	      0.10749479	     -0.47302501	     -0.24454893	     17.07408913	     40.16772952	      0.04569994	     -0.24471653	     -0.02330317	      0.03457699	     23.08513973	   -133.04303756	     -0.00000000	      0.00000000	     -0.00000000	     -0.00000000	      0.02385380	      0.12433873	      0.02162433	      0.17226129	      0.02162433	      0.12987327	      0.16678965	      0.11936623
      0.21472528	   -182.70929213	  -1661.49563775	    194.95442402	    838.63734095	      0.00000000	      0.00000000	     -0.00000000	     -0.00000000	      0.00000000	     -0.00000000	     -0.14965250	      0.00000000	     -0.06584239	      0.00000000	      0.00000000	      0.00000000	     39.93491625	    199.47908312	      4.37285767	      2.02784066	      1.58293857	    -81.89385469	    -50.30842963	   -891.71851662	      0.00388860	      0.10644348	     -0.47313468	     -0.24664044	     17.09182616	     39.27347902	      0.04559030	     -0.24635921	     -0.02328773	      0.03457625	     23.02640491	   -130.02391427	     -0.00000000	      0.00000000	     -0.00000000	     -0.00000000	      0.02383200	      0.12418533	      0.02161471	      0.17203030	      0.02161471	      0.12993524	      0.16556700	      0.11971453
      0.21517181	   -183.44927845	  -1652.99077720	    195.32787205	    834.12440919	      0.00000000	      0.00000000	     -0.00000000	     -0.00000000	      0.00000000	     -0.00000000	     -0.14965250	      0.00000000	     -0.06584239	      0.00000000	      0.00000000	      0.00000000	     40.02483862	    203.25475698	      4.37374776	      1.95866264	      1.54643089	    -81.62308084	    -50.70723458	   -894.49887156	      0.00393588	      0.10529230	     -0.47324526	     -0.24862145	     17.10916020	     38.36513490	      0.04547995	     -0.24789635	     -0.02327229	      0.03456254	     22.96902592	   -126.97779517	     -0.00000000	      0.00000000	     -0.00000000	     -0.00000000	      0.02381019	      0.12403195	      0.02160514	      0.17179860	      0.02160514	      0.12999880	      0.16435747	      0.12000050
      0.21554679	   -184.06777047	  -1645.80405262	    195.63996894	    830.50681497	      0.00000000	      0.00000000	     -0.00000000	     -0.00000000	      0.00000000	     -0.00000000	     -0.14965250	      0.00000000	     -0.06584239	      0.00000000	      0.00000000	      0.00000000	     40.10162057	    206.24427192	      4.37447109	      1.89911385	      1.51587060	    -81.37023896	    -51.04303202	   -896.46221196	      0.00397517	      0.10424259	     -0.47333878	     -0.25018068	     17.12340140	     37.59035992	      0.04538677	     -0.24908743	     -0.02325934	      0.03453882	     22.92189565	   -124.39371229	     -0.00000000	      0.00000000	     -0.00000000	     -0.00000000	      0.02379189	      0.12390315	      0.02159715	      0.17160357	      0.02159715	      0.13005327	      0.16335175	      0.12031066
      0.21592176	   -184.68358458	  -1638.73989660	    195.95074893	    827.11466859	      0.00000000	      0.00000000	     -0.00000000	     -0.00000000	      0.00000000	     -0.00000000	     -0.14965250	      0.00000000	     -0.06584239	      0.00000000	      0.00000000	      0.00000000	     40.17949709	    209.09830288	      4.37517190	      1.83856852	      1.48540792	    -81.10433079	    -51.37951830	   -898.19330237	      0.00401405	      0.10313104	     -0.47343288	     -0.25167289	     17.13735092	     36.81052224	      0.04529315	     -0.25021618	     -0.02324639	      0.03450826	     22.87573605	   -121.80389225	     -0.00000000	      0.00000000	     -0.00000000	     -0.00000000	      0.02377358	      0.12377435	      0.02158920	      0.17140821	      0.02158920	      0.13010868	      0.16235503	      0.12055642
      0.21629674	   -185.29675285	  -1631.67121281	    196.26028724	    823.87158813	      0.00000000	      0.00000000	     -0.00000000	     -0.00000000	      0.00000000	     -0.00000000	     -0.14965250	      0.00000000	     -0.06584239	      0.00000000	      0.00000000	      0.00000000	     40.25841728	    211.80958103	      4.37584981	      1.77700025	      1.45504810	    -80.82087984	    -51.71660192	   -899.63925216	      0.00405250	      0.10195269	     -0.47352752	     -0.25308205	     17.15100690	     36.02450233	      0.04519912	     -0.25126714	     -0.02323346	      0.03446897	     22.83054943	   -119.20331853	     -0.00000000	      0.00000000	     -0.00000000	     -0.00000000	      0.02375528	      0.12364556	      0.02158129	      0.17121260	      0.02158129	      0.13016497	      0.16136721	      0.12084679
      0.21677006	   -186.06695461	  -1622.87798151	    196.64931739	    820.04189346	      0.00000000	      0.00000000	     -0.00000000	     -0.00000000	      0.00000000	     -0.00000000	     -0.14965250	      0.00000000	     -0.06584239	      0.00000000	      0.00000000	      0.00000000	     40.35944526	    215.05783773	      4.37667227	      1.69815075	      1.41688243	    -80.44731116	    -52.14278320	   -901.15520916	      0.00410039	      0.10038304	     -0.47364771	     -0.25476782	     17.16782223	     35.02910322	      0.04507990	     -0.25250879	     -0.02321716	      0.03441086	     22.77490591	   -115.92183063	     -0.00000000	      0.00000000	     -0.00000000	     -0.00000000	      0.02373218	      0.12348301	      0.02157136	      0.17096543	      0.02157136	      0.13023722	      0.16013290	      0.12116254
      0.21714782	   -186.67868336	  -1615.84958522	    196.95854075	    817.12631385	      0.00000000	      0.00000000	     -0.00000000	     -0.00000000	      0.00000000	     -0.00000000	     -0.14965250	      0.00000000	     -0.06584239	      0.00000000	      0.00000000	      0.00000000	     40.44115139	    217.50530489	      4.37730173	      1.63431831	      1.38655176	    -80.13274105	    -52.48338339	   -902.07215063	      0.00413806	      0.09906079	     -0.47374419	     -0.25602468	     17.18090417	     34.23143275	      0.04498434	     -0.25341824	     -0.02320417	      0.03435608	     22.73161065	   -113.30000267	     -0.00000000	      0.00000000	     -0.00000000	     -0.00000000	      0.02371375	      0.12335329	      0.02156348	      0.17076802	      0.02156348	      0.13029577	      0.15915769	      0.12147221
      0.21752557	   -187.28777448	  -1608.94323152	    197.26669435	    814.39173326	      0.00000000	      0.00000000	     -0.00000000	     -0.00000000	      0.00000000	     -0.00000000	     -0.14965250	      0.00000000	     -0.06584239	      0.00000000	      0.00000000	      0.00000000	     40.52376152	    219.84916811	      4.37790696	      1.56992808	      1.35634148	    -79.81160540	    -52.82429380	   -902.81657760	      0.00417522	      0.09768788	     -0.47384113	     -0.25722658	     17.19368490	     33.43522567	      0.04488844	     -0.25427917	     -0.02319120	      0.03429729	     22.68930432	   -110.68858212	     -0.00000000	      0.00000000	     -0.00000000	     -0.00000000	      0.02369532	      0.12322357	      0.02155563	      0.17057056	      0.02155563	      0.13035507	      0.15819117	      0.12172042
      0.21790333	   -187.89426089	  -1602.03934085	    197.57383819	    811.76881931	      0.00000000	      0.00000000	     -0.00000000	     -0.00000000	      0.00000000	     -0.00000000	     -0.14965250	      0.00000000	     -0.06584239	      0.00000000	      0.00000000	      0.00000000	     40.60723602	    222.07991902	      4.37848775	      1.50494957	      1.32625448	    -79.47923323	    -53.16544434	   -903.33427965	      0.00421186	      0.09625951	     -0.47393852	     -0.25835720	     17.20616493	     32.63921416	      0.04479224	     -0.25507576	     -0.02317826	      0.03423253	     22.64798339	   -108.08209821	     -0.00000000	      0.00000000	     -0.00000000	     -0.00000000	      0.02367690	      0.12309385	      0.02154783	      0.17037311	      0.02154783	      0.13041508	      0.15723324	      0.12201076
      0.21838631	   -188.66590976	  -1593.34515316	    197.96513971	    808.63041459	      0.00000000	      0.00000000	     -0.00000000	     -0.00000000	      0.00000000	     -0.00000000	     -0.14965250	      0.00000000	     -0.06584239	      0.00000000	      0.00000000	      0.00000000	     40.71515797	    224.79471262	      4.37919443	      1.42127292	      1.28797179	    -79.04613910	    -53.60185005	   -903.75707409	      0.00425790	      0.09436417	     -0.47406363	     -0.25972356	     17.22168418	     31.62626983	      0.04466881	     -0.25602531	     -0.02316174	      0.03414460	     22.59658269	   -104.76972855	     -0.00000000	      0.00000000	     -0.00000000	     -0.00000000	      0.02365334	      0.12292802	      0.02153792	      0.17012075	      0.02153792	      0.13049279	      0.15602081	      0.12233121
